<svg width="24" height="20" fill="none" xmlns="http://www.w3.org/2000/svg"><path d="M6.138 0l3.19 4.12h-.442l-.295.44L5.598.295 5.794 0h.344z" fill="#5D5D5D"/><path d="M18.356.343l-2.6 4.07-.148-.294h-.54l2.7-4.07h.392l.196.294zm5.251 9.759h-4.809l.147-.294-.147-.295h4.858l.147.295-.196.294zM15.412 15.3l2.454 3.972-.197.343h-.441l-2.16-3.825.344-.49z" fill="#D1D1D1"/><path d="M12.174 10.151l-2.552 4.12-.196-.344h-.491l2.6-4.12h.442l.197.344z" fill="#5D5D5D"/><path d="M.298 9.464l4.957.05-.197.294.147.392H.347l-.245-.392.196-.344z" fill="#D1D1D1"/><path d="M5.745 0l3.14 4.12h6.674L18.16 0H5.745z" fill="#5D5D5D"/><path d="M18.945 9.808h4.907L18.16 0l-2.6 4.12 3.385 5.688z" fill="#747474"/><path d="M18.945 9.808h4.907l-6.183 9.807-2.404-4.119 3.68-5.688z" fill="#929292"/><path d="M9.376 13.927l3.632 5.688h4.662l-5.693-9.807-2.6 4.119z" fill="#5B5B5B"/><path d="M.102 9.808l2.6 4.119h6.675l2.6-4.12H.102z" fill="#5D5D5D"/><path d="M8.886 4.12L5.058 9.807H.102L5.745 0l3.14 4.12z" fill="#393939"/><path d="M8.69-.196H.004v10.15H8.69V-.195z" fill="#969696"/></svg>