<svg width="22" height="22" fill="none" xmlns="http://www.w3.org/2000/svg"><g clip-path="url(#clip0)" fill="#F64B2D"><path d="M13.75 5.958a.917.917 0 01-.916-.916V3.667H9.167v1.375a.917.917 0 01-1.833 0V3.667c0-1.011.822-1.834 1.833-1.834h3.667c1.01 0 1.833.823 1.833 1.834v1.375c0 .506-.41.916-.917.916zm-2.1 8.14a2.008 2.008 0 01-1.357-.018L.001 10.652v6.994a2.52 2.52 0 002.52 2.52h16.96a2.52 2.52 0 002.52-2.52v-6.994l-10.35 3.446z"/><path d="M22 7.104v2.1l-10.78 3.593a.616.616 0 01-.22.036.616.616 0 01-.22-.036L0 9.203V7.104a2.52 2.52 0 012.52-2.52h16.96A2.52 2.52 0 0122 7.103z"/></g><defs><clipPath id="clip0"><path fill="#fff" d="M0 0h22v22H0z"/></clipPath></defs></svg>