<svg width="42" height="36" fill="none" xmlns="http://www.w3.org/2000/svg"><path d="M35.828 20.691c.422.12.952.226 1.509.226.565 0 1.158-.11 1.692-.426 1.645-.973 1.838-3.38 1.855-3.65a.78.78 0 00-.446-.754c-.246-.115-2.452-1.1-4.096-.127-.167.1-.32.213-.459.338a.778.778 0 00-1.396.551 11.32 11.32 0 01-.223 3.703 11.342 11.342 0 01-9.898 8.768.779.779 0 10.16 1.55 12.911 12.911 0 004.919-1.541c.366.916 1.122 2.307 2.463 2.813a3.29 3.29 0 001.166.203c1.67 0 3.237-1.085 3.317-1.142a.779.779 0 00.31-.82c-.029-.117-.72-2.901-2.745-3.666a3.234 3.234 0 00-1.029-.2c.182-.208.356-.422.524-.641.62.427 1.681 1.014 2.82 1.014.257 0 .517-.03.776-.098 1.96-.51 2.866-2.912 2.963-3.184a.779.779 0 00-.221-.847c-.218-.19-2.18-1.842-4.137-1.336a13.063 13.063 0 00.176-.734zm2.486 2.906c-.322.627-.913 1.493-1.66 1.688-.75.194-1.682-.269-2.275-.664.322-.627.914-1.493 1.66-1.687.75-.195 1.683.268 2.275.663zm-1.179-6.296c.59-.348 1.495-.192 2.114 0-.129.635-.426 1.502-1.014 1.85-.588.348-1.494.192-2.114 0 .13-.636.426-1.502 1.014-1.85zm-2.118 12.915c-.679.36-1.758.77-2.56.468-.8-.303-1.34-1.323-1.61-2.04.678-.362 1.757-.771 2.559-.469.801.303 1.34 1.323 1.61 2.04zM17.52 29.32a11.342 11.342 0 01-9.899-8.768 11.312 11.312 0 01-.223-3.703.779.779 0 00-1.396-.55 2.855 2.855 0 00-.458-.339c-1.645-.973-3.85.012-4.096.127A.78.78 0 001 16.84c.017.271.21 2.678 1.855 3.651.534.316 1.127.426 1.693.426.556 0 1.086-.106 1.508-.226a12.624 12.624 0 00.177.734c-1.958-.506-3.92 1.146-4.137 1.336a.78.78 0 00-.221.847c.097.272 1.002 2.674 2.962 3.184.26.068.52.098.776.098 1.14 0 2.2-.587 2.82-1.014.168.22.343.433.524.64a3.23 3.23 0 00-1.028.202c-2.026.764-2.717 3.548-2.745 3.666a.78.78 0 00.31.82c.08.056 1.647 1.14 3.317 1.14.389 0 .783-.058 1.166-.202 1.34-.506 2.096-1.897 2.463-2.813a12.895 12.895 0 004.918 1.541.78.78 0 10.16-1.55zM5.23 25.285c-.749-.195-1.336-1.054-1.66-1.687.593-.396 1.527-.86 2.276-.664.75.195 1.337 1.053 1.66 1.686-.593.396-1.526.86-2.275.665zM3.65 19.15c-.588-.349-.885-1.215-1.014-1.85.615-.19 1.527-.347 2.114 0 .588.348.885 1.215 1.014 1.85-.615.189-1.527.347-2.114 0zm5.778 11.533c-.802.302-1.882-.108-2.56-.468.271-.718.81-1.739 1.612-2.04.801-.303 1.881.107 2.559.467-.271.718-.81 1.738-1.611 2.04z" fill="#18214D"/><path d="M32.066 20.694V6.652a.779.779 0 00-.938-.762 4.017 4.017 0 01-.82.084 3.973 3.973 0 01-3.932-3.324.779.779 0 00-.768-.65h-9.33a.78.78 0 00-.769.65 3.973 3.973 0 01-3.932 3.324c-.276 0-.552-.028-.82-.084a.779.779 0 00-.937.762v14.042c0 1.602.935 3.078 2.383 3.761l8.407 3.97a.778.778 0 00.666 0l8.407-3.97a4.177 4.177 0 002.383-3.76zM20.943 26.86l-8.075-3.813a2.612 2.612 0 01-1.49-2.352V7.528a5.525 5.525 0 005.52-3.97h8.09a5.525 5.525 0 005.52 3.97v13.166a2.612 2.612 0 01-1.49 2.353l-8.075 3.812z" fill="#18214D"/><path d="M14.026 20.664V9.811a8.16 8.16 0 004.583-3.604h4.667A8.161 8.161 0 0027.86 9.81v10.853l-6.916 3.266-6.917-3.266z" fill="#fff"/><path d="M22 18h-1.368v-5.348l-1.633.513v-1.128L21.854 11H22v7z" fill="#18214D"/></svg>