<svg width="42" height="36" fill="none" xmlns="http://www.w3.org/2000/svg"><path d="M20.965 6.083a7.964 7.964 0 00-3.985 14.862v1.872a.798.798 0 00.797.797h2.39v-7.639l-2.953-2.954a.797.797 0 111.127-1.127l2.624 2.624 2.624-2.624a.796.796 0 111.127 1.127l-2.954 2.954v7.639h2.39a.798.798 0 00.797-.797v-1.872a7.964 7.964 0 00-3.984-14.862z" fill="#fff"/><path d="M4.272 33.72l2.358-7.076a16.77 16.77 0 115.726 5.726L5.28 34.728a.799.799 0 01-1.008-1.007zm8.612-2.897a15.177 15.177 0 10-4.707-4.707.796.796 0 01.083.678l-1.973 5.919 5.919-1.973a.797.797 0 01.678.083z" fill="#18214D"/><path d="M24.152 26.801h-6.375a.797.797 0 010-1.593h6.375a.797.797 0 110 1.593zm-1.594 3.188h-3.187a.797.797 0 010-1.594h3.187a.797.797 0 010 1.594z" fill="#18214D"/></svg>