<svg width="22" height="22" fill="none" xmlns="http://www.w3.org/2000/svg"><path d="M.474 14.768l2 3.464a1 1 0 001.186.447l2.943-.995c.26.171.53.327.807.467l.61 3.045A1 1 0 009 22h4a1 1 0 00.98-.804l.61-3.045c.277-.14.547-.296.807-.467l2.943.995a1 1 0 001.186-.447l2-3.464a1 1 0 00-.206-1.251l-2.334-2.051a8.063 8.063 0 000-.932l2.334-2.05a1 1 0 00.206-1.252l-2-3.464a1 1 0 00-1.186-.447l-2.943.995a7.971 7.971 0 00-.807-.467L13.98.804A1 1 0 0013 0H9a1 1 0 00-.98.804l-.61 3.045a8 8 0 00-.807.467L3.66 3.321a1 1 0 00-1.186.447l-2 3.464a1 1 0 00.205 1.251l2.334 2.051a8.103 8.103 0 000 .932L.68 13.516a1 1 0 00-.205 1.252zM11 7c2.206 0 4 1.794 4 4s-1.794 4-4 4-4-1.794-4-4 1.794-4 4-4z" fill="#F64B2D"/></svg>