<svg width="22" height="22" fill="none" xmlns="http://www.w3.org/2000/svg"><g clip-path="url(#clip0)" fill="#F64B2D"><path d="M6.506 5.556a.689.689 0 01-.689-.689V.69a.689.689 0 111.378 0v4.178a.69.69 0 01-.689.69zm8.988 0a.689.689 0 01-.69-.689V.69a.689.689 0 111.379 0v4.178a.69.69 0 01-.69.69zM1.044 9.557v9.505A2.942 2.942 0 003.983 22h14.034a2.942 2.942 0 002.938-2.938V9.557H1.045z"/><path d="M20.955 8.18V5.027a2.942 2.942 0 00-2.938-2.939h-.457v2.778c0 1.14-.927 2.067-2.066 2.067a2.069 2.069 0 01-2.067-2.067V2.09H8.573v2.778c0 1.14-.927 2.067-2.067 2.067A2.069 2.069 0 014.44 4.867V2.09h-.457a2.942 2.942 0 00-2.939 2.939V8.18h19.911z"/></g><defs><clipPath id="clip0"><path fill="#fff" d="M0 0h22v22H0z"/></clipPath></defs></svg>